<svg xmlns="http://www.w3.org/2000/svg" width="1200" height="630" viewBox="0 0 1200 630">
  <defs>
    <linearGradient id="g" x1="0" x2="1">
      <stop offset="0" stop-color="#06b6d4" />
      <stop offset="1" stop-color="#06b6a4" />
    </linearGradient>
  </defs>
  <rect width="1200" height="630" fill="#f8fafc" />
  <rect x="60" y="60" width="1080" height="510" rx="24" fill="url(#g)" opacity="0.12" />
  <g transform="translate(120,120)">
    <rect x="0" y="0" width="480" height="390" rx="16" fill="#fff" />
    <g transform="translate(36,36)">
      <circle cx="60" cy="60" r="40" fill="#06b6d4" opacity="0.12" />
      <rect x="140" y="20" width="220" height="40" rx="8" fill="#06b6d4" opacity="0.12" />
      <text x="12" y="150" font-family="Arial, Helvetica, sans-serif" font-size="28" fill="#0f172a">MedBook</text>
      <text x="12" y="190" font-family="Arial, Helvetica, sans-serif" font-size="18" fill="#475569">Book appointments with top healthcare professionals</text>
    </g>
  </g>
  <g transform="translate(660,160)">
    <rect x="0" y="0" width="420" height="330" rx="16" fill="#fff" />
    <g transform="translate(40,36)">
      <path d="M40 120c0-33.137 26.863-60 60-60s60 26.863 60 60v60" stroke="#06b6d4" stroke-width="12" fill="none" stroke-linecap="round" stroke-linejoin="round" />
      <circle cx="80" cy="40" r="24" stroke="#06b6d4" stroke-width="12" fill="none" />
      <rect x="140" y="16" width="180" height="60" rx="8" fill="#06b6d4" opacity="0.18" />
      <text x="0" y="180" font-family="Arial, Helvetica, sans-serif" font-size="18" fill="#0f172a">Find doctors · Schedule · Manage</text>
    </g>
  </g>
</svg>
